<svg xmlns="http://www.w3.org/2000/svg" width="520" height="380" font-family="sans-serif" font-size="12">
<rect width="520" height="380" fill="white"/>
<text x="260" y="24" text-anchor="middle" font-size="15" font-weight="bold">Q 因素還原率(M=40,ρ=0,強制、無非定義者,平行分析)</text>
<line x1="60" y1="330" x2="390" y2="330" stroke="#eee"/>
<text x="52" y="334" text-anchor="end" fill="#555">0%</text>
<line x1="60" y1="272.8" x2="390" y2="272.8" stroke="#eee"/>
<text x="52" y="276.8" text-anchor="end" fill="#555">20%</text>
<line x1="60" y1="215.6" x2="390" y2="215.6" stroke="#eee"/>
<text x="52" y="219.6" text-anchor="end" fill="#555">40%</text>
<line x1="60" y1="158.4" x2="390" y2="158.4" stroke="#eee"/>
<text x="52" y="162.4" text-anchor="end" fill="#555">60%</text>
<line x1="60" y1="101.19999999999999" x2="390" y2="101.19999999999999" stroke="#eee"/>
<text x="52" y="105.19999999999999" text-anchor="end" fill="#555">80%</text>
<line x1="60" y1="44" x2="390" y2="44" stroke="#eee"/>
<text x="52" y="48" text-anchor="end" fill="#555">100%</text>
<line x1="60" y1="44" x2="60" y2="330" stroke="#333"/>
<line x1="60" y1="330" x2="390" y2="330" stroke="#333"/>
<text x="60" y="350" text-anchor="middle" fill="#555">4</text>
<text x="170" y="350" text-anchor="middle" fill="#555">6</text>
<text x="280" y="350" text-anchor="middle" fill="#555">8</text>
<text x="390" y="350" text-anchor="middle" fill="#555">12</text>
<text x="225" y="372" text-anchor="middle" fill="#333">每因素人數(persons/factor)</text>
<text x="16" y="187" text-anchor="middle" transform="rotate(-90 16 187)" fill="#333">還原率 @|φ|≥0.90</text>
<polyline points="60,330 170,327.14 280,262.504 390,76.604" fill="none" stroke="#1b7" stroke-width="2.5"/>
<circle cx="60" cy="330" r="3.5" fill="#1b7"/>
<circle cx="170" cy="327.14" r="3.5" fill="#1b7"/>
<circle cx="280" cy="262.504" r="3.5" fill="#1b7"/>
<circle cx="390" cy="76.604" r="3.5" fill="#1b7"/>
<line x1="404" y1="50" x2="424" y2="50" stroke="#1b7" stroke-width="2.5"/>
<text x="428" y="54" fill="#333">c=0.4</text>
<polyline points="60,188.716 170,49.720000000000006 280,44.572 390,44" fill="none" stroke="#28c" stroke-width="2.5"/>
<circle cx="60" cy="188.716" r="3.5" fill="#28c"/>
<circle cx="170" cy="49.720000000000006" r="3.5" fill="#28c"/>
<circle cx="280" cy="44.572" r="3.5" fill="#28c"/>
<circle cx="390" cy="44" r="3.5" fill="#28c"/>
<line x1="404" y1="70" x2="424" y2="70" stroke="#28c" stroke-width="2.5"/>
<text x="428" y="74" fill="#333">c=0.6</text>
<polyline points="60,45.144 170,44 280,44 390,44" fill="none" stroke="#e63" stroke-width="2.5"/>
<circle cx="60" cy="45.144" r="3.5" fill="#e63"/>
<circle cx="170" cy="44" r="3.5" fill="#e63"/>
<circle cx="280" cy="44" r="3.5" fill="#e63"/>
<circle cx="390" cy="44" r="3.5" fill="#e63"/>
<line x1="404" y1="90" x2="424" y2="90" stroke="#e63" stroke-width="2.5"/>
<text x="428" y="94" fill="#333">c=0.8</text>
<rect x="60" y="44" width="110" height="286" fill="#f3a" opacity="0.06"/>
<text x="115" y="324" text-anchor="middle" fill="#c39" font-size="11">Brown 4–5</text>
</svg>